<svg width="322" height="96" viewBox="0 0 322 96" fill="none" xmlns="http://www.w3.org/2000/svg">
<path d="M11.12 0.559998V39.6H59.76V0.559998H70V94H59.76V47.792H11.12V94H0.88V0.559998H11.12ZM133.227 41.008C129.387 36.2293 124.096 33.84 117.355 33.84C110.614 33.84 105.28 36.2293 101.355 41.008C97.515 45.7013 95.595 52.272 95.595 60.72C95.595 69.168 97.515 75.7813 101.355 80.56C105.28 85.2533 110.614 87.6 117.355 87.6C124.096 87.6 129.387 85.2533 133.227 80.56C137.152 75.7813 139.115 69.168 139.115 60.72C139.115 52.272 137.152 45.7013 133.227 41.008ZM140.139 85.936C134.422 92.1653 126.827 95.28 117.355 95.28C107.883 95.28 100.288 92.1653 94.571 85.936C88.8537 79.7067 85.995 71.3013 85.995 60.72C85.995 50.1387 88.8537 41.7333 94.571 35.504C100.288 29.2747 107.883 26.16 117.355 26.16C126.827 26.16 134.422 29.2747 140.139 35.504C145.856 41.7333 148.715 50.1387 148.715 60.72C148.715 71.3013 145.856 79.7067 140.139 85.936ZM163.475 27.44H172.435L172.563 38.448H172.819C177.512 30.256 183.358 26.16 190.355 26.16C198.888 26.16 204.862 30.4267 208.275 38.96H208.531C213.054 30.4267 219.496 26.16 227.859 26.16C234.771 26.16 239.848 28.208 243.091 32.304C246.334 36.3147 247.955 42.8 247.955 51.76V94H238.739V54.32C238.739 46.5547 237.758 41.2213 235.795 38.32C233.832 35.3333 230.504 33.84 225.811 33.84C221.715 33.84 218.131 35.888 215.059 39.984C211.987 44.08 210.451 49.072 210.451 54.96V94H201.235V54.32C201.235 46.64 200.211 41.3067 198.163 38.32C196.2 35.3333 192.872 33.84 188.179 33.84C184.339 33.84 180.798 36.1013 177.555 40.624C174.398 45.0613 172.819 50.3947 172.819 56.624V94H163.475V27.44ZM271.595 64.304C271.766 71.5573 273.984 77.2747 278.251 81.456C282.518 85.6373 288.064 87.728 294.891 87.728C301.462 87.728 307.99 86.0213 314.475 82.608L317.035 89.904C309.867 93.488 302.187 95.28 293.995 95.28C284.438 95.28 276.715 92.1653 270.827 85.936C264.939 79.7067 261.995 71.3013 261.995 60.72C261.995 49.968 264.726 41.52 270.187 35.376C275.734 29.232 283.243 26.16 292.715 26.16C301.931 26.16 309.056 29.104 314.091 34.992C319.211 40.7947 321.771 49.1573 321.771 60.08C321.771 61.1893 321.686 62.5973 321.515 64.304H271.595ZM271.595 56.88H312.555C312.47 49.456 310.678 43.7387 307.179 39.728C303.68 35.7173 298.859 33.712 292.715 33.712C286.315 33.712 281.238 35.76 277.483 39.856C273.814 43.8667 271.851 49.5413 271.595 56.88Z" fill="white"/>
</svg>
