<svg width="316" height="96" viewBox="0 0 316 96" fill="none" xmlns="http://www.w3.org/2000/svg">
<path d="M6.664 0.559998V40.624H60.424V0.559998H66.824V94H60.424V46H6.664V94H0.264001V0.559998H6.664ZM132.397 39.216C127.96 33.9253 121.944 31.28 114.349 31.28C106.754 31.28 100.738 33.9253 96.301 39.216C91.8637 44.4213 89.645 51.5893 89.645 60.72C89.645 69.8507 91.8637 77.0613 96.301 82.352C100.738 87.5573 106.754 90.16 114.349 90.16C121.944 90.16 127.96 87.5573 132.397 82.352C136.834 77.0613 139.053 69.8507 139.053 60.72C139.053 51.5893 136.834 44.4213 132.397 39.216ZM136.749 85.936C131.202 92.1653 123.736 95.28 114.349 95.28C104.962 95.28 97.4957 92.1653 91.949 85.936C86.4023 79.7067 83.629 71.3013 83.629 60.72C83.629 50.1387 86.4023 41.7333 91.949 35.504C97.4957 29.2747 104.962 26.16 114.349 26.16C123.736 26.16 131.202 29.2747 136.749 35.504C142.296 41.7333 145.069 50.1387 145.069 60.72C145.069 71.3013 142.296 79.7067 136.749 85.936ZM166.369 27.44L166.497 40.368H166.753C168.801 35.8453 171.404 32.3467 174.561 29.872C177.718 27.3973 181.174 26.16 184.929 26.16C194.145 26.16 200.161 30.8107 202.977 40.112H203.233C205.11 35.76 207.756 32.3467 211.169 29.872C214.668 27.3973 218.593 26.16 222.945 26.16C229.601 26.16 234.508 28.208 237.665 32.304C240.908 36.4 242.529 42.8853 242.529 51.76V94H236.641V53.04C236.641 45.104 235.489 39.5147 233.185 36.272C230.881 32.944 227.084 31.28 221.793 31.28C217.1 31.28 213.046 33.4987 209.633 37.936C206.22 42.288 204.513 47.7493 204.513 54.32V94H198.625V53.04C198.625 45.104 197.473 39.5147 195.169 36.272C192.95 32.944 189.196 31.28 183.905 31.28C179.638 31.28 175.67 33.8827 172.001 39.088C168.417 44.208 166.625 50.4373 166.625 57.776V94H160.609V27.44H166.369ZM263.395 62.896C263.48 71.4293 265.827 78.128 270.435 82.992C275.128 87.856 281.358 90.288 289.123 90.288C296.206 90.288 302.904 88.496 309.219 84.912L311.139 89.648C304.227 93.4027 296.76 95.28 288.739 95.28C279.182 95.28 271.544 92.208 265.827 86.064C260.195 79.8347 257.379 71.3867 257.379 60.72C257.379 49.968 260.067 41.52 265.443 35.376C270.819 29.232 278.158 26.16 287.459 26.16C296.334 26.16 303.203 29.104 308.067 34.992C312.931 40.88 315.363 49.2427 315.363 60.08V62.896H263.395ZM263.523 57.776H309.475C309.304 49.1573 307.299 42.5867 303.459 38.064C299.704 33.456 294.371 31.152 287.459 31.152C280.12 31.152 274.36 33.4987 270.179 38.192C265.998 42.8 263.779 49.328 263.523 57.776Z" fill="black"/>
</svg>
