<svg width="15" height="11" viewBox="0 0 15 11" fill="none" xmlns="http://www.w3.org/2000/svg">
<path d="M0.882812 10C1.40625 9.89062 1.77344 9.61914 1.98438 9.18555L1.99609 9.13281L3.22656 0.912109L6.38477 8.02539L9.4082 0.912109L10.6328 9.13281L10.6445 9.18555C10.8555 9.61914 11.2227 9.89062 11.7461 10H8.35938C9.10547 9.72266 9.47852 9.45898 9.47852 9.20898C9.47852 9.20117 9.47852 9.19141 9.47852 9.17969L9.47266 9.13281L8.70508 4.07617L6.03906 10.2344L3.34375 4.02344L2.65234 9.13281L2.64648 9.20312C2.6543 9.4375 3.02734 9.70312 3.76562 10H0.882812ZM13.0234 9.92383C12.875 9.77148 12.8008 9.58789 12.8008 9.37305C12.8008 9.1582 12.875 8.97656 13.0234 8.82812C13.1719 8.67578 13.3516 8.59961 13.5625 8.59961C13.7734 8.59961 13.9531 8.67578 14.1016 8.82812C14.25 8.97656 14.3242 9.1582 14.3242 9.37305C14.3242 9.58789 14.25 9.77148 14.1016 9.92383C13.9531 10.0723 13.7734 10.1465 13.5625 10.1465C13.3516 10.1465 13.1719 10.0723 13.0234 9.92383Z" fill="white"/>
</svg>