<svg width="152" height="97" viewBox="0 0 152 97" xmlns="http://www.w3.org/2000/svg">
<path d="M143.5 97C148.193 97 152 93.1927 152 88.5C152 83.8073 148.193 80 143.5 80C138.807 80 135 83.8073 135 88.5C135 93.1927 138.807 97 143.5 97Z"/>
<path d="M122.918 78.576V15.3368C122.918 6.07495 127.811 2.68891 134.001 2.68891V0H106.043C103.746 0 101.649 1.39425 100.751 3.48563L73.4911 71.2064L40.5399 6.57289C38.6428 2.58932 34.5488 0 30.1553 0H4.7929V2.68891C8.38757 2.98768 15.5769 2.98768 20.9689 12.4487V59.5544C20.9689 80.269 19.6709 93.614 0 93.614V95.8049H42.3373V93.614C24.2641 93.614 23.0658 78.3768 23.0658 59.5544V16.731L63.5059 97H65.7027L102.249 6.67248V78.576C102.249 89.4312 97.9549 93.614 91.8639 93.614V95.8049H135V93.614C128.809 93.614 122.918 89.4312 122.918 78.576Z"/>
</svg>
