<svg version="1.1" id="Layer_1" xmlns="http://www.w3.org/2000/svg" x="0px" y="0px" style="width:max(100px,7vw)" viewBox="0 0 400 96.2" xml:space="preserve">
<g fill="rgba(1, 1, 1, 1)">
<path d="M123.1,78.9V15.4c0-9.3,4.9-12.7,11.1-12.7V0h-28c-2.3,0-4.4,1.4-5.3,3.5l-27.3,68L40.6,6.6 C38.7,2.6,34.6,0,30.2,0H4.8v2.7C8.4,3,15.6,3,21,12.5v47.3C21,80.6,19.7,94,0,94v2.2h42.4V94c-18.1,0-19.3-15.3-19.3-34.2v-43 l40.5,80.6h2.2l36.6-90.7v72.2c0,10.9-4.3,15.1-10.4,15.1v2.2h43.2V94C129,94,123.1,89.8,123.1,78.9"></path></g><g fill="rgba(1, 1, 1, 1)"><g opacity="1" transform-origin="152.24999237060547px 49.69999885559082px" style="transform: none; transform-origin: 152.25px 49.7px;">
<path d="M161.8,80.7V36c0-4.1-3.8-7.2-7.8-6.3l-17.3,3.2v2.2c5.9,2.5,7.4,4.5,7.4,9.4v36.2c0,7.4-0.2,13.1-5.8,13.3v2.2 h29.5V94C162.5,92.5,161.8,88.6,161.8,80.7"></path>
<path d="M153.1,22.4c5.3,0,9.6-4.3,9.6-9.6c0-5.3-4.3-9.6-9.6-9.6s-9.6,4.3-9.6,9.6C143.5,18.1,147.8,22.4,153.1,22.4"></path>
</g>
<path d="M209.8,32.1c-2.9,0.7-5.6,1.9-8.1,3.5c-0.1,0.1-2.7,1.8-4.8,4c-0.3,0.3-1,1-1.8,1.9c-0.2,0.2-0.3,0.3-0.4,0.5 v-6c0-4.1-3.8-7.2-7.8-6.3l-17.3,3.2v2.2c5.9,2.5,7.4,4.5,7.4,9.4v36.2c0,7.4-0.2,13.1-5.8,13.3v2.2h29.5V94 c-5.2-1.4-5.9-5.4-5.9-13.3V44.4c0.6-0.5,1.2-0.9,1.8-1.2c2.2-1.4,3.3-1.7,3.7-1.8c0.5-0.1,2.8-0.8,3.4,0c0.1,0.2,0.1,0.4,0.1,0.7 c-0.2,2.3,0.8,4.8,2.6,6.8c4.2,3.9,10.4,3.7,14.3-0.2c3.9-3.9,3.9-10.2,0-14.1C217.7,31.9,212.9,31.3,209.8,32.1" opacity="1" transform-origin="196.61249542236328px 62.87177658081055px" style="transform: none; transform-origin: 196.612px 62.8718px;"></path>
<path d="M276.8,34.6c-2.8-2.6-7.6-3.3-10.7-2.5c-2.9,0.7-5.6,1.9-8.1,3.5c-0.1,0.1-2.7,1.8-4.8,4c-0.3,0.3-1,1-1.8,1.9 c-0.2,0.2-0.3,0.3-0.4,0.5v-6c0-4.1-3.8-7.2-7.8-6.3l-17.3,3.2v2.2c5.9,2.5,7.4,4.5,7.4,9.4v36.2c0,7.4-0.2,13.1-5.8,13.3v2.2h29.5 V94c-5.2-1.4-5.9-5.4-5.9-13.3V44.4c0.6-0.5,1.2-0.9,1.8-1.2c2.2-1.4,3.3-1.7,3.7-1.8c0.5-0.1,2.8-0.8,3.4,0 c0.1,0.2,0.1,0.4,0.1,0.7c-0.2,2.3,0.8,4.8,2.6,6.8c4.2,3.9,10.4,3.7,14.3-0.2C280.7,44.8,280.7,38.5,276.8,34.6" opacity="1" transform-origin="252.82522583007812px 62.87177658081055px" style="transform: none; transform-origin: 252.825px 62.8718px;"></path>
<path d="M312.1,28c-22,0-33.9,15.6-33.9,34.8c0,19,11.9,34.8,33.9,34.8c22.2,0,34-15.8,34-34.8 C346.1,43.6,334.3,28,312.1,28 M312.1,95.3c-10.7,0-15.8-6.4-15.8-32.6c0-26.2,5.1-32.6,15.8-32.6c10.9,0,15.8,6.4,15.8,32.6 C327.9,88.9,323,95.3,312.1,95.3" opacity="1" transform-origin="312.15000915527344px 62.79999923706055px" style="transform: none; transform-origin: 312.15px 62.8px;"></path>
<path d="M397.1,34.6c-2.8-2.6-7.6-3.3-10.7-2.5c-2.9,0.7-5.6,1.9-8.1,3.5c-0.1,0.1-2.7,1.8-4.8,4c-0.3,0.3-1,1-1.8,1.9 c-0.2,0.2-0.3,0.3-0.4,0.5v-6c0-4.1-3.8-7.2-7.8-6.3l-17.3,3.2v2.2c5.9,2.5,7.4,4.5,7.4,9.4v36.2c0,7.4-0.2,13.1-5.8,13.3v2.2h29.5 V94c-5.2-1.4-5.9-5.4-5.9-13.3V44.4c0.6-0.5,1.2-0.9,1.8-1.2c2.2-1.4,3.3-1.7,3.7-1.8c0.5-0.1,2.8-0.8,3.4,0 c0.1,0.2,0.1,0.4,0.1,0.7c-0.2,2.3,0.8,4.8,2.6,6.8c4.2,3.9,10.4,3.7,14.3-0.2C401,44.8,401,38.5,397.1,34.6" opacity="1" transform-origin="373.1252746582031px 62.87177658081055px" style="transform: none; transform-origin: 373.125px 62.8718px;"></path>
</g>
</svg>