<svg width="236" height="98" viewBox="0 0 236 98" fill="none" xmlns="http://www.w3.org/2000/svg">
<path d="M0.0640001 2.56H67.52V8.19199H36.928V96H30.528V8.19199H0.0640001V2.56ZM99.039 28.16C107.914 28.16 114.228 30.08 117.983 33.92C121.738 37.6747 123.615 44.16 123.615 53.376V78.08C123.615 84.0533 124.255 90.0267 125.535 96H119.647C118.879 92.0747 118.41 87.68 118.239 82.816H117.983C115.679 87.2533 112.308 90.7947 107.871 93.44C103.519 96 98.527 97.28 92.895 97.28C86.5803 97.28 81.5457 95.5733 77.791 92.16C74.0363 88.6613 72.159 83.968 72.159 78.08C72.159 70.5707 75.4443 64.7253 82.015 60.544C88.671 56.2773 98.1003 54.144 110.303 54.144H117.599V53.504C117.599 45.9093 116.234 40.6613 113.503 37.76C110.858 34.7733 106.036 33.28 99.039 33.28C90.7617 33.28 83.295 35.2427 76.639 39.168L75.103 34.304C82.271 30.208 90.2497 28.16 99.039 28.16ZM78.047 77.824C78.047 82.2613 79.455 85.8027 82.271 88.448C85.1723 91.0933 89.055 92.416 93.919 92.416C100.319 92.416 105.866 90.0693 110.559 85.376C115.252 80.5973 117.599 74.6667 117.599 67.584V59.008H110.303C99.9777 59.008 91.999 60.672 86.367 64C80.8203 67.328 78.047 71.936 78.047 77.824ZM149.994 96V-7.62939e-06H156.266V96H149.994ZM188.64 -7.62939e-06V58.496H188.896L226.656 29.44H234.848L193.504 61.184L235.488 96H227.424L188.896 63.872H188.64V96H182.624V-7.62939e-06H188.64Z" fill="white"/>
</svg>
